# xmcd
#
# Track frame offsets:
#	150
#	10115
#	21597
#	32859
#	45657
#	56281
#	67476
#	79783
#	95723
#	108224
#	120141
#	131844
#	145369
#	154648
#	166116
#	177392
#	190821
#	202192
#	213853
#	224695
#	236514
#	249474
#	261070
#	276816
#	286749
#	304585
#	317888
#	329295
#	340489
#	353448
#	368150
#	378029
#
# Disc length: 5180 seconds
#
# Revision: 0
# Processed by: cddbd v1.5.2PL0 Copyright (c) Steve Scherf et al.
# Submitted via: EasyCDDAExtractor 12.0.1.1
#
DISCID=dd143a20
DTITLE=Various Artist - First 10 Years Disc 4
DYEAR=1900
DGENRE=
TTITLE0=Anderson Bill - Lovin' Pains
TTITLE1=Anderson Bill - When Liking Turns To Loving
TTITLE2=Anderson Bill - Talkin' To The Wall
TTITLE3=Anderson Bill - Next Time You're In Tulsa
TTITLE4=Anderson Bill - I Get The Fever
TTITLE5=Anderson Bill - Nail My Shoes To The Floor
TTITLE6=Anderson Bill - First Mrs. Jones
TTITLE7=Anderson Bill - Papa
TTITLE8=Anderson Bill and Jan Howard - For Loving You
TTITLE9=Anderson Bill and Jan Howard - Untouchables
TTITLE10=Anderson Bill - Get While The Gettin's Good
TTITLE11=Anderson Bill - Something To Believe In
TTITLE12=Anderson Bill - Ride Ride Ride
TTITLE13=Anderson Bill - My Daddy And My Mama And Me
TTITLE14=Anderson Bill - Satisfied Mind
TTITLE15=Anderson Bill - Bad Seed
TTITLE16=Anderson Bill - Remember Me (When Candle Lights Are Gleaming)
TTITLE17=Anderson Bill - Wheel Of Hurt
TTITLE18=Anderson Bill - Open Up Your Heart
TTITLE19=Anderson Bill - Homesick
TTITLE20=Anderson Bill - I'm Ashamed Of You
TTITLE21=Anderson Bill and Dolly Parton - If It's All The Same To You
TTITLE22=Anderson Bill - Here Lies The Heart Of Amos Brown
TTITLE23=Anderson Bill - Once A Day
TTITLE24=Anderson Bill - Cold Hard Facts Of Life
TTITLE25=Anderson Bill - Think I'll Go Somewhere (And Cry Myself To Sleep)
TTITLE26=Anderson Bill - I Love You Drops
TTITLE27=Anderson Bill - I'll Go Down Swingin'
TTITLE28=Anderson Bill - You And Your Sweet Love
TTITLE29=Anderson Bill - Lord Knows I'm Drinkin'
TTITLE30=Anderson Bill - Slippin'  Away
TTITLE31=Anderson Bill - Nobody But A Fool
EXTD=
EXTT0=
EXTT1=
EXTT2=
EXTT3=
EXTT4=
EXTT5=
EXTT6=
EXTT7=
EXTT8=
EXTT9=
EXTT10=
EXTT11=
EXTT12=
EXTT13=
EXTT14=
EXTT15=
EXTT16=
EXTT17=
EXTT18=
EXTT19=
EXTT20=
EXTT21=
EXTT22=
EXTT23=
EXTT24=
EXTT25=
EXTT26=
EXTT27=
EXTT28=
EXTT29=
EXTT30=
EXTT31=
PLAYORDER=
